<svg width="30" height="30" fill="none" xmlns="http://www.w3.org/2000/svg"><mask id="a" style="mask-type:luminance" maskUnits="userSpaceOnUse" x="0" y="0" width="30" height="30"><path fill-rule="evenodd" clip-rule="evenodd" d="M15 0h15v30H0V0h15z" fill="#fff"/></mask><g mask="url(#a)"><path fill-rule="evenodd" clip-rule="evenodd" d="M27.318 14.998h-.046c0-1.25.024-2.5-.007-3.748-.03-1.178-.074-2.359-.194-3.53-.114-1.12-.51-2.153-1.265-3.024-1.059-1.218-2.455-1.731-4.001-1.826-1.76-.107-3.526-.134-5.29-.155a163.372 163.372 0 00-5.265.02 43.344 43.344 0 00-3.53.194c-1.12.114-2.153.51-3.024 1.265C3.478 5.252 2.965 6.65 2.87 8.195c-.107 1.76-.134 3.526-.155 5.29-.022 1.754-.014 3.51.02 5.265.024 1.178.074 2.359.194 3.53.114 1.12.509 2.153 1.265 3.024 1.058 1.218 2.455 1.732 4.001 1.826 1.76.107 3.526.134 5.29.155a139.2 139.2 0 005.265-.023c1.296-.033 2.604-.058 3.88-.258 2.18-.343 3.655-1.607 4.242-3.77.19-.702.29-1.443.317-2.17.075-2.02.09-4.044.129-6.066zM0 19.941V10.06c.017-.094.045-.187.048-.281.034-1.16.087-2.317.37-3.45.642-2.554 2.123-4.412 4.56-5.466C6.297.292 7.701.126 9.124.068c.312-.013.623-.045.934-.068h9.882c.093.017.186.045.28.048 1.16.034 2.317.087 3.45.37 2.554.642 4.412 2.123 5.466 4.56.571 1.32.737 2.724.795 4.147.013.312.045.623.068.934v9.882c-.017.093-.045.186-.048.28-.034 1.16-.087 2.317-.37 3.45-.642 2.554-2.123 4.412-4.56 5.466-1.32.571-2.724.737-4.147.795-.312.013-.623.045-.934.068h-9.88c-.094-.017-.187-.045-.282-.048-1.159-.034-2.316-.087-3.448-.37-2.555-.642-4.413-2.123-5.467-4.56-.571-1.32-.737-2.724-.795-4.147-.013-.312-.045-.623-.068-.934z" fill="#E43071"/></g><path fill-rule="evenodd" clip-rule="evenodd" d="M14.996 19.99c2.73 0 4.991-2.234 4.994-4.934.003-2.78-2.213-5.044-4.941-5.046-2.792-.002-5.039 2.218-5.04 4.978 0 2.76 2.235 5.002 4.987 5.002zm7.713-4.983a7.704 7.704 0 01-7.73 7.702c-4.25-.006-7.69-3.46-7.688-7.716a7.703 7.703 0 017.73-7.702c4.25.007 7.69 3.458 7.688 7.716zm.281-9.819a1.803 1.803 0 011.822 1.801 1.812 1.812 0 01-1.809 1.818 1.822 1.822 0 01-1.81-1.82 1.814 1.814 0 011.798-1.799z" fill="#E43071"/></svg>