<svg width="25" height="30" fill="none" xmlns="http://www.w3.org/2000/svg"><path fill-rule="evenodd" clip-rule="evenodd" d="M20.19 11.394h-1.58v-.922c-.598.692-1.106 1.041-1.66 1.041-.485 0-.822-.23-.991-.647-.103-.254-.176-.65-.176-1.231V2.932h1.58v6.87c.037.235.136.321.337.321.302 0 .576-.265.91-.74v-6.45h1.58v8.46zM13.04 8.88c.082.838-.176 1.254-.666 1.254-.49 0-.748-.416-.665-1.254V5.53c-.083-.839.174-1.231.665-1.231.49 0 .75.392.666 1.23V8.88zm1.579-3.183c0-.904-.18-1.583-.499-2.01-.42-.58-1.08-.817-1.746-.817-.753 0-1.326.237-1.746.816-.324.428-.498 1.114-.498 2.018l-.001 3.009c0 .899.154 1.52.478 1.944.42.577 1.102.882 1.767.882.665 0 1.358-.305 1.78-.882.318-.424.465-1.045.465-1.944V5.697z" fill="#E43071"/><mask id="a" style="mask-type:luminance" maskUnits="userSpaceOnUse" x="4" y="0" width="7" height="12"><path fill-rule="evenodd" clip-rule="evenodd" d="M10.461.084h-5.82v11.31h5.82V.084z" fill="#fff"/></mask><g mask="url(#a)"><path fill-rule="evenodd" clip-rule="evenodd" d="M8.382 6.786v4.608H6.72V6.786S4.996 1.136 4.64.084h1.747l1.167 4.413L8.715.084h1.746L8.382 6.786z" fill="#E43071"/></g><path fill-rule="evenodd" clip-rule="evenodd" d="M14.969 19.542c-.248 0-.532.132-.784.382l-.002 5.081c.252.254.538.382.786.382.434 0 .63-.32.63-1.159v-3.602c0-.838-.196-1.084-.63-1.084zm6.201 1.008c0-.775-.199-1.008-.698-1.008-.503 0-.716.214-.716.997v.926l1.414-.001v-.915z" fill="#E43071"/><mask id="b" style="mask-type:luminance" maskUnits="userSpaceOnUse" x="0" y="12" width="25" height="18"><path fill-rule="evenodd" clip-rule="evenodd" d="M0 30h24.83V12.482H0v17.516z" fill="#fff"/></mask><g mask="url(#b)"><path fill-rule="evenodd" clip-rule="evenodd" d="M20.486 25.387c.371 0 .587-.203.673-.608.014-.083.011-.445.011-1.053h1.58v.237c0 .489-.04.835-.053.987-.051.336-.17.64-.352.909-.417.607-1.035.907-1.821.907-.788 0-1.387-.285-1.823-.857-.32-.42-.524-1.042-.524-1.932v-2.932c0-.895.186-1.587.506-2.01.435-.573 1.035-.876 1.803-.876.756 0 1.355.303 1.777.876.315.424.49 1.078.49 1.973v1.713h-2.997v1.504c-.005.773.214 1.162.73 1.162zm-3.307-1.242c0 .774-.066 1.32-.167 1.675-.2.623-.639.946-1.238.946-.535 0-1.084-.324-1.587-.951l-.002.843h-1.497V15.432h1.497l-.002 3.66c.487-.603 1.037-.946 1.591-.946.6 0 1.002.349 1.203.976.1.337.202.879.202 1.672v3.35zm-5.738 2.513h-1.58v-.922c-.599.692-1.107 1.041-1.66 1.041-.486 0-.823-.23-.992-.647-.102-.254-.175-.65-.175-1.231V18.28h1.58v6.786c.037.235.136.321.337.321.302 0 .576-.264.91-.74V18.28h1.58v8.378zm-5.987 0H3.79v-9.635H2.044v-1.59l5.24-.001v1.591h-1.83v9.635zm19.129-10.396s-.243-1.716-.987-2.472c-.944-.992-2.003-.997-2.488-1.055-3.475-.252-8.687-.252-8.687-.252h-.01s-5.213 0-8.688.252c-.485.058-1.543.063-2.488 1.055-.744.756-.987 2.472-.987 2.472S0 18.277 0 20.292v1.89c0 2.015.248 4.03.248 4.03s.243 1.717.987 2.472c.945.992 2.186.961 2.738 1.065 1.987.191 8.442.25 8.442.25s5.218-.008 8.693-.26c.485-.058 1.544-.063 2.488-1.055.744-.755.987-2.472.987-2.472s.248-2.015.248-4.03v-1.89c0-2.015-.248-4.03-.248-4.03z" fill="#E43071"/></g></svg>